<svg viewBox="0 0 1280 640" xmlns="http://www.w3.org/2000/svg">
  <!-- Background -->
  <rect width="1280" height="640" fill="#1e40af"/>
  <path d="M0 0 L1280 0 L1280 640 L0 640 Z" fill="#2563eb"/>
  
  <!-- Geometric Pattern -->
  <path d="M0 480 Q640 400 1280 480 L1280 640 L0 640 Z" fill="#1e40af" opacity="0.7"/>
  <path d="M0 520 Q640 440 1280 520 L1280 640 L0 640 Z" fill="#3b82f6" opacity="0.5"/>
  
  <!-- Logo -->
  <g transform="translate(100, 160) scale(0.8)">
    <circle cx="200" cy="200" r="180" fill="#2563eb"/>
    <path d="M240 80 L160 200 L220 200 L160 320 L280 160 L220 160 L280 80 Z" 
          fill="white" 
          stroke="#1e40af" 
          stroke-width="8"/>
    <path d="M140 140 L100 200 L140 260" 
          fill="none" 
          stroke="white" 
          stroke-width="24" 
          stroke-linecap="round"/>
    <path d="M260 140 L300 200 L260 260" 
          fill="none" 
          stroke="white" 
          stroke-width="24" 
          stroke-linecap="round"/>
  </g>
  
  <!-- Text -->
  <text x="480" y="220" 
        font-family="Arial, sans-serif" 
        font-size="72" 
        font-weight="bold" 
        fill="white">Frontend Power Pack</text>
  
  <text x="480" y="300" 
        font-family="Arial, sans-serif" 
        font-size="32" 
        fill="white">Supercharge your web development workflow</text>
</svg>
